<?xml version="1.0" encoding="UTF-8"?> <svg xmlns="http://www.w3.org/2000/svg" width="68.594" height="68.594" viewBox="0 0 68.594 68.594"><path id="Icon_awesome-phone" data-name="Icon awesome-phone" d="M66.1,3.3,52.168.081a3.236,3.236,0,0,0-3.684,1.862l-6.431,15a3.207,3.207,0,0,0,.924,3.751L51.1,27.344A49.651,49.651,0,0,1,27.357,51.083l-6.645-8.119a3.212,3.212,0,0,0-3.751-.924l-15,6.431a3.254,3.254,0,0,0-1.876,3.7L3.3,66.1a3.214,3.214,0,0,0,3.135,2.492A62.155,62.155,0,0,0,68.593,6.431,3.211,3.211,0,0,0,66.1,3.3Z" transform="translate(0.001 0.001)" fill="#ef6c00"></path></svg> 