<?xml version="1.0" encoding="UTF-8"?> <svg xmlns="http://www.w3.org/2000/svg" width="105.827" height="75.594" viewBox="0 0 105.827 75.594"><path id="Tracciato_389" data-name="Tracciato 389" d="M8.1-759.745v7.568H19.422v-7.568Zm15.09,0v7.568H68.06l-6.615,52.9H37.606a11.371,11.371,0,0,0-10.624-7.567,11.371,11.371,0,0,0-10.624,7.567H.53v7.56H16.351a11.354,11.354,0,0,0,10.631,7.56,11.354,11.354,0,0,0,10.631-7.56H65.5a11.347,11.347,0,0,0,10.624,7.56,11.354,11.354,0,0,0,10.631-7.56h8.261a3.779,3.779,0,0,0,3.654-2.732l7.538-26.453a3.785,3.785,0,0,0-.059-2.289l-7.87-22.687a3.781,3.781,0,0,0-3.573-2.54h-19.5l.886-7.088a3.781,3.781,0,0,0-3.736-4.245ZM.53-744.618v7.56H11.862v-7.56Zm15.127,0v7.56H38.315v-7.56Zm58.6,3.765H92.025l6.585,19-6.445,22.576H86.746a11.371,11.371,0,0,0-10.624-7.567,11.211,11.211,0,0,0-6.357,1.986ZM8.1-729.5v7.567H26.982V-729.5Zm22.658,0v7.567H42.11V-729.5ZM.53-714.4v7.56H11.862v-7.56Zm26.453,15.127a3.731,3.731,0,0,1,3.773,3.8,3.706,3.706,0,0,1-3.773,3.765,3.724,3.724,0,0,1-3.795-3.765A3.75,3.75,0,0,1,26.982-699.273Zm49.14,0a3.724,3.724,0,0,1,3.765,3.8,3.7,3.7,0,0,1-3.765,3.765,3.7,3.7,0,0,1-3.765-3.765A3.725,3.725,0,0,1,76.122-699.273Z" transform="translate(-0.53 759.746)" fill="#ef6c00"></path></svg> 