<svg xmlns="http://www.w3.org/2000/svg" width="29.685" height="27.83" viewBox="0 0 29.685 27.83">
  <path id="Icon_metro-cart" data-name="Icon metro-cart" d="M13.7,28.9A2.783,2.783,0,1,1,10.92,26.12,2.783,2.783,0,0,1,13.7,28.9Zm18.553,0a2.783,2.783,0,1,1-2.783-2.783A2.783,2.783,0,0,1,32.256,28.9Zm0-12.06V5.711H9.992A1.855,1.855,0,0,0,8.137,3.856H2.571V5.711H6.281L7.675,17.657a3.71,3.71,0,0,0,2.317,6.608H32.256V22.409H9.992a1.855,1.855,0,0,1-1.855-1.855c0-.006,0-.013,0-.019l24.119-3.692Z" transform="translate(-2.571 -3.856)" fill="#ef6c00"/>
</svg>
