<svg id="Logo_Bristot_payoff" data-name="Logo Bristot payoff" xmlns="http://www.w3.org/2000/svg" xmlns:xlink="http://www.w3.org/1999/xlink" width="139.943" height="68.631" viewBox="0 0 139.943 68.631">
  <defs>
    <clipPath id="clip-path">
      <path id="Tracciato_11" data-name="Tracciato 11" d="M0-6.31H139.943V-74.941H0Z" transform="translate(0 74.941)" fill="#ef6c00"/>
    </clipPath>
  </defs>
  <g id="Raggruppa_11" data-name="Raggruppa 11" clip-path="url(#clip-path)">
    <g id="Raggruppa_1" data-name="Raggruppa 1" transform="translate(0 0)">
      <path id="Tracciato_1" data-name="Tracciato 1" d="M-9.6-2.561c0-15.384-31.328-27.854-69.971-27.854S-149.54-17.944-149.54-2.561s31.328,27.854,69.971,27.854S-9.6,12.823-9.6-2.561m-11.928.077c0,13.957-26.421,23.492-58.214,23.492s-58.214-9.535-58.214-23.492,26.42-25.271,58.214-25.271S-21.525-16.441-21.525-2.484" transform="translate(149.54 30.415)" fill="#ef6c00"/>
    </g>
    <g id="Raggruppa_2" data-name="Raggruppa 2" transform="translate(26.184 13.713)">
      <path id="Tracciato_2" data-name="Tracciato 2" d="M-1.156-1.481c0-4.946-3.6-8.957-8.32-8.957a5.611,5.611,0,0,0-2.8.7c.046-.431.131-1.476.131-2.526v-5.331l-5.868,4.113S-18-3.893-18-2.41c0,.112.017.936.017,1.131a8.549,8.549,0,0,0,8.5,8.754c4.717,0,8.32-4.01,8.32-8.957m-5.43-.229c0,2.146-1.393,3.886-3.11,3.886s-2.89-1.74-2.89-3.886S-11.412-5.6-9.7-5.6s3.11,1.739,3.11,3.885" transform="translate(18.015 17.594)" fill="#ef6c00"/>
    </g>
    <g id="Raggruppa_3" data-name="Raggruppa 3" transform="translate(44.347 21.34)">
      <path id="Tracciato_3" data-name="Tracciato 3" d="M0-.008H5.873s.118,1.507-.215,1.8c.438-.4,1.153-1.886,4.581-1.886.045.045,0,5.6,0,5.6a3.483,3.483,0,0,0-2.165-.839c-1.262,0-2.065.515-2.065,1.938V17.092H0Z" transform="translate(0 0.094)" fill="#ef6c00"/>
    </g>
    <g id="Raggruppa_4" data-name="Raggruppa 4" transform="translate(55.713 21.426)">
      <path id="Tracciato_4" data-name="Tracciato 4" d="M0,0H5.905V8.3S5.5,15.58,8.83,17.1H6.179C3.653,17.1,0,15.625,0,7.945Z" fill="#ef6c00"/>
    </g>
    <g id="Raggruppa_5" data-name="Raggruppa 5" transform="translate(77.461 13.756)">
      <path id="Tracciato_5" data-name="Tracciato 5" d="M-.124-.374v3.6h-1.8l.045,4.329H-.119v4.34s-.411,8.431,6.445,8.431H8.9s-3.086-2.163-3.086-8.475c0-4.117-.045-4.34-.045-4.34H7.995V3.226H5.77l.045-7.671Z" transform="translate(1.928 4.445)" fill="#ef6c00"/>
    </g>
    <g id="Raggruppa_6" data-name="Raggruppa 6" transform="translate(87.927 20.87)">
      <path id="Tracciato_6" data-name="Tracciato 6" d="M-1.061-.7C-2-5.6-6.084-8.954-10.315-8.224a3.669,3.669,0,0,0-1.829.886c2.177.8,3.92,2.812,4.994,7.584,1.062,4.724,1.7,6.779,2.714,7.91C-2.071,7.512-.232,3.613-1.061-.7M-16.381,1.942c.881,4.886,5.023,8.253,9.253,7.523a3.1,3.1,0,0,0,1.553-.625c-2.993-1.054-3.252-4-4.331-8.162-1.119-4.317-2.326-6.33-3.376-7.394-2.321.942-3.74,5.1-3.1,8.657" transform="translate(16.535 8.324)" fill="#ef6c00"/>
    </g>
    <g id="Raggruppa_7" data-name="Raggruppa 7" transform="translate(103.866 13.756)">
      <path id="Tracciato_7" data-name="Tracciato 7" d="M-.124-.374v3.6h-1.8l.045,4.329H-.119v4.34s-.411,8.431,6.445,8.431H8.9s-3.086-2.163-3.086-8.475c0-4.117-.045-4.34-.045-4.34H7.995V3.226H5.77l.045-7.671Z" transform="translate(1.928 4.445)" fill="#ef6c00"/>
    </g>
    <g id="Raggruppa_8" data-name="Raggruppa 8" transform="translate(55.347 12.806)">
      <path id="Tracciato_8" data-name="Tracciato 8" d="M-.215-.576A3.134,3.134,0,0,0,2.92-3.71,3.134,3.134,0,0,0-.215-6.844,3.134,3.134,0,0,0-3.35-3.71,3.134,3.134,0,0,0-.215-.576" transform="translate(3.35 6.844)" fill="#ef6c00"/>
    </g>
    <g id="Raggruppa_9" data-name="Raggruppa 9" transform="translate(63.186 20.869)">
      <path id="Tracciato_9" data-name="Tracciato 9" d="M-1-1.125C-1-4.6-3.318-6.139-6.383-6.806-8.067-7.172-9.93-7.48-9.93-8.333c0-.6.5-1.053,1.611-1a3.706,3.706,0,0,1,2.347,1.1c0-.042,3.836-2.477,3.836-2.477-.409-.324-1.821-2.647-6.56-2.647-3.39,0-6.614,1.954-6.458,5.669.144,3.459,2.718,4.6,5.9,5.183,1.637.291,2.868.366,2.824,1.247-.038.771-1.139,1.314-3.066.789A4.194,4.194,0,0,1-11.681-2.12L-15.535.418A7.831,7.831,0,0,0-8.441,4.55C-6.157,4.55-1,3.755-1-1.125" transform="translate(15.535 13.362)" fill="#ef6c00"/>
    </g>
    <g id="Raggruppa_10" data-name="Raggruppa 10" transform="translate(25.168 63.135)">
      <path id="Tracciato_10" data-name="Tracciato 10" d="M0-.48a.145.145,0,0,0,.147.144H2.063A1.563,1.563,0,0,0,3.746-1.8,1.437,1.437,0,0,0,2.711-3.027a1.509,1.509,0,0,0,.9-1.2,1.541,1.541,0,0,0-1.66-1.406H.147A.146.146,0,0,0,0-5.484Zm1.205-3V-4.539h.6a.519.519,0,0,1,.541.514.544.544,0,0,1-.541.544Zm0,2.064V-2.5H1.83a.614.614,0,0,1,.634.529.555.555,0,0,1-.556.552ZM5.654-.48A.145.145,0,0,0,5.8-.336H9A.145.145,0,0,0,9.145-.48V-1.3A.145.145,0,0,0,9-1.447H6.859V-2.468H8.62a.145.145,0,0,0,.147-.144v-.823a.15.15,0,0,0-.147-.144H6.859v-.937H9a.146.146,0,0,0,.147-.144v-.824A.146.146,0,0,0,9-5.628H5.8a.145.145,0,0,0-.146.144Zm5.453,0a.145.145,0,0,0,.146.144h2.9A.145.145,0,0,0,14.3-.48V-1.3a.145.145,0,0,0-.147-.143H12.319V-5.484a.15.15,0,0,0-.146-.144h-.92a.145.145,0,0,0-.146.144Zm4.874,0a.145.145,0,0,0,.146.144h2.9a.145.145,0,0,0,.147-.144V-1.3a.145.145,0,0,0-.147-.143H17.193V-5.484a.15.15,0,0,0-.146-.144h-.92a.145.145,0,0,0-.146.144Zm4.734-1.882a2.156,2.156,0,0,0,2.194,2.1,2.164,2.164,0,0,0,2.209-2.1V-5.484a.15.15,0,0,0-.146-.144h-.951a.145.145,0,0,0-.146.144v3.062a.943.943,0,0,1-.966.952.934.934,0,0,1-.95-.952V-5.484a.146.146,0,0,0-.147-.144h-.95a.151.151,0,0,0-.147.144ZM27.289-.48a.15.15,0,0,0,.146.144h.92A.145.145,0,0,0,28.5-.48V-3.3h.008l3.051,3a.221.221,0,0,0,.1.038h.124A.144.144,0,0,0,31.93-.4V-5.484a.151.151,0,0,0-.147-.144h-.926a.146.146,0,0,0-.147.144V-2.8H30.7L27.621-5.7h-.194a.144.144,0,0,0-.147.136Zm6.5-2.495A2.727,2.727,0,0,0,36.564-.261a2.733,2.733,0,0,0,2.78-2.714A2.746,2.746,0,0,0,36.564-5.7a2.739,2.739,0,0,0-2.773,2.728m1.236,0a1.538,1.538,0,0,1,1.537-1.519,1.54,1.54,0,0,1,1.545,1.519,1.532,1.532,0,0,1-1.545,1.5,1.53,1.53,0,0,1-1.537-1.5M43.686-.48a.15.15,0,0,0,.147.144h.926a.15.15,0,0,0,.147-.144v-5a.151.151,0,0,0-.147-.144h-.926a.151.151,0,0,0-.147.144Zm4.171,0A.15.15,0,0,0,48-.336h.927a.151.151,0,0,0,.147-.144V-4.516h1.1a.146.146,0,0,0,.147-.144v-.824a.146.146,0,0,0-.147-.144h-3.43a.146.146,0,0,0-.147.144v.824a.146.146,0,0,0,.147.144h1.105Zm3.329.144h.85a.287.287,0,0,0,.278-.181l.278-.605h2.1l.278.6c.069.144.131.19.27.19H56.1a.134.134,0,0,0,.132-.2L53.812-5.621a.157.157,0,0,0-.131-.082H53.6a.157.157,0,0,0-.131.082L51.055-.533a.134.134,0,0,0,.131.2m1.869-1.814L53.634-3.4h.008l.587,1.247ZM57.79-.48a.145.145,0,0,0,.146.144h2.9a.145.145,0,0,0,.147-.144V-1.3a.145.145,0,0,0-.147-.143H59V-5.484a.15.15,0,0,0-.146-.144h-.92a.145.145,0,0,0-.146.144Zm4.873,0a.151.151,0,0,0,.147.144h.927a.151.151,0,0,0,.147-.144v-5a.151.151,0,0,0-.147-.144H62.81a.151.151,0,0,0-.147.144Zm2.912.144h.85A.287.287,0,0,0,66.7-.518l.278-.605h2.1l.278.6c.069.144.132.19.27.19h.857a.134.134,0,0,0,.132-.2L68.2-5.621A.157.157,0,0,0,68.07-5.7h-.078a.158.158,0,0,0-.131.082L65.444-.533a.134.134,0,0,0,.131.2m1.869-1.814L68.023-3.4h.008l.587,1.247Zm7.57,1.67a.145.145,0,0,0,.147.144h.857a.143.143,0,0,0,.138-.144V-5.333a.144.144,0,0,0-.138-.144h-.711l-1.128.862a.217.217,0,0,0-.046.114v.476a.143.143,0,0,0,.138.144h.742ZM78.4-.919l.224.582a.183.183,0,0,0,.24.121,3.518,3.518,0,0,0,2.6-3.326A1.842,1.842,0,0,0,79.6-5.6a1.76,1.76,0,0,0-1.769,1.731,1.534,1.534,0,0,0,1.538,1.64,2.265,2.265,0,0,0,.734-.151c-.162.778-1.189,1.126-1.553,1.24-.154.045-.178.128-.147.219M79.617-3.1a.739.739,0,0,1-.741-.733.738.738,0,0,1,.741-.726.739.739,0,0,1,.741.726.74.74,0,0,1-.741.733M83.594-.48a.145.145,0,0,0,.147.144H84.6a.143.143,0,0,0,.139-.144V-5.333a.144.144,0,0,0-.139-.144h-.71l-1.128.862a.209.209,0,0,0-.046.114v.476a.143.143,0,0,0,.139.144h.741Zm3.391-.439.224.582a.183.183,0,0,0,.24.121,3.519,3.519,0,0,0,2.6-3.326A1.842,1.842,0,0,0,88.182-5.6a1.759,1.759,0,0,0-1.769,1.731,1.533,1.533,0,0,0,1.537,1.64,2.271,2.271,0,0,0,.735-.151c-.163.778-1.19,1.126-1.553,1.24-.154.045-.178.128-.147.219M88.2-3.1a.74.74,0,0,1-.742-.733.739.739,0,0,1,.742-.726.739.739,0,0,1,.741.726A.74.74,0,0,1,88.2-3.1" transform="translate(0 5.703)" fill="#ef6c00"/>
    </g>
  </g>
</svg>
