<?xml version="1.0" encoding="UTF-8"?> <svg xmlns="http://www.w3.org/2000/svg" xmlns:xlink="http://www.w3.org/1999/xlink" width="447.302" height="246.018" viewBox="0 0 447.302 246.018"><defs><clipPath id="clip-path"><path id="Tracciato_2286" data-name="Tracciato 2286" d="M0,124.807H447.3V-121.211H0Z" transform="translate(0 121.211)"></path></clipPath></defs><g id="Raggruppa_1571" data-name="Raggruppa 1571" clip-path="url(#clip-path)"><g id="Raggruppa_1570" data-name="Raggruppa 1570" transform="translate(0 -0.001)"><path id="Tracciato_2285" data-name="Tracciato 2285" d="M226.92,39.77c0-43.295-86.281-78.394-192.715-78.394-59.013,0-111.818,10.794-147.169,27.788-47.782,12.8-82.962,32.493-94.355,55.316-6.566,13.156-5.06,26.552,4.475,39.816,20.144,28.032,58.842,42.895,96.076,50.748-8.088,6.391-16.27,12.974-24.376,19.627-48.984,40.2-71.008,43.236-79.76,41.472-5.174-1.043-6.694-3.824-6.757-3.942l-2.722,1.364c.083.166,2.087,4.1,8.606,5.507a23.924,23.924,0,0,0,5.034.5c12.775,0,35.972-8.439,77.529-42.55,8.748-7.179,17.609-14.3,26.349-21.182,12.606,2.5,24.959,4.224,36.28,5.4-19.929,26.229-22.43,36.7-19.651,40.49,2.622,3.572,9.2,2.762,20.717-2.563,16.942-7.832,26.71-12.4,32.359-15.062a16.318,16.318,0,0,0-1.7,3.39c-1.108,3.14-.852,5.492.759,6.992a6.9,6.9,0,0,0,4.8,1.494c4.475,0,9.9-2.233,11.307-2.844a77.351,77.351,0,0,0,8.263-4.53,8.077,8.077,0,0,0-.487,1.53,4.979,4.979,0,0,0,2.494,5.5,5.787,5.787,0,0,0,3,.684c3.381,0,9.663-1.886,19.968-11.273-.794,2.263-1.029,4.35-.043,5.622,1.628,2.1,4.918.889,6,.487a83.983,83.983,0,0,0,10.66-4.764c-.02.045-.045.087-.065.134-1.486,3.379-2.732,7.077-.7,8.886,1.772,1.575,4.948.828,10.635-2.5a60.966,60.966,0,0,0,10.215-7.4c-.15,2.251.148,4.22,1.175,5.541.8,1.029,2.373,2.117,5.308,1.459a50.644,50.644,0,0,0,8.415-3.107,8.01,8.01,0,0,0,.319,5.257c1.52,3.193,5.6,4.457,12.1,3.777,13.286-1.394,27.938-14.79,33.128-19.939a7.286,7.286,0,0,1-1.072,2.825,38.784,38.784,0,0,1-5.647,7.163l2,2.3c.154-.122,15.462-12.15,20.845-14.634,4.973-2.294,6.99-2.294,7.242-2.249,0,.008.2.84-1.549,3.664-5.092,8.2-7.7,11.983-7.725,12.02l2.222,2.038c.14-.116,13.944-11.545,21.1-13.974,2.6-.883,3.72-.875,4.116-.816a8.04,8.04,0,0,1-1.642,2.909c-3.189,4.147-6.188,8.766-4.246,11.573,1.409,2.046,4.747,2.188,10.5.451,9.188-2.775,16.168-5.748,21.683-9.336a8.68,8.68,0,0,0-.82,5.48,5.111,5.111,0,0,0,3.314,3.528c3.842,1.518,7.666-.71,10.816-3.814a158.6,158.6,0,0,1-9.706,19,45.7,45.7,0,0,0-21.192,6.694c-5.208,3.146-8.033,6.515-7.954,9.489a4.272,4.272,0,0,0,2.419,3.729,8.374,8.374,0,0,0,3.954.861c3.513,0,7.973-1.5,12.391-4.295,4.279-2.708,8.4-7.729,12.1-13.485a37.809,37.809,0,0,1,16.241,3.371l1.252-2.777a41.155,41.155,0,0,0-15.624-3.627,189.32,189.32,0,0,0,13.558-29.29l-2.779-1.224c-2.076,3.907-9.192,14.591-14.354,12.535-1.11-.44-1.38-1.037-1.486-1.449-.375-1.467.359-4.642,5.988-11.409.706-.85.919-1.108.919-1.7v-4l-2.657,2.984c-6.048,6.787-14.7,11.516-28.943,15.815-6.231,1.879-7.1.745-7.112.733-.1-.138-.8-1.547,4.157-7.987,2.265-2.947,2.848-5.1,1.78-6.6-1.441-2.02-4.845-1.187-7.65-.235-4.175,1.419-10.158,5.44-14.841,8.892q1.248-1.97,2.813-4.488c1.354-2.186,2.965-5.306,1.3-7.193-1.049-1.189-3.231-2.107-10.853,1.409-2.868,1.323-8.1,4.975-12.689,8.346,2.123-4.5-.1-7.126-.2-7.244l-1.112-1.275-1.149,1.24c-.181.195-18.129,19.381-33.138,20.956-3.5.367-7.9.309-9.034-2.06-.68-1.425-.254-3.515.68-5.709,9.166-4.514,19.495-11.035,20.394-15.233a3.03,3.03,0,0,0-1.185-3.172c-3.887-2.913-13,4.816-15.227,7.047a39.091,39.091,0,0,0-6.282,9.129,53.349,53.349,0,0,1-10.526,4.128c-1.662.373-2.1-.177-2.239-.359-.85-1.09-.775-3.718.043-7.169,3.986-4.116,8.117-9.2,13.629-16.075,1.689-2.1,3.31-4.1,4.835-5.983C83.98,127.681,87.364,123.3,86.209,120.66a2.611,2.611,0,0,0-2.413-1.508c-5.9-.313-19.45,15.511-25.917,28.312a73.748,73.748,0,0,0-5.048,12.965,57.29,57.29,0,0,1-12.647,9.858c-5.677,3.327-6.984,2.886-7.043,2.882h0c-.022-.037-.518-.972,1.437-5.415a18.839,18.839,0,0,1,3.479-5.161c.227-.164.361-.268.394-.292l-.057-.075c3.381-3.471,7.644-5.561,9.978-5.23.67.093,1.1.294,1.267.6a2.818,2.818,0,0,1-.148,2.024l2.783,1.238c.12-.272,1.155-2.71.032-4.735a4.432,4.432,0,0,0-3.517-2.143c-3.432-.461-8.724,2.082-12.763,6.32a70.9,70.9,0,0,1-15.88,8,6.81,6.81,0,0,1-2.257.526,1.908,1.908,0,0,1-.284-.018c-.613-1.086,1.863-6.473,5.194-11.307l-2.365-1.9c-.834.891-1.721,1.806-2.651,2.73.514-1.354.83-3.057-.03-4.343-.8-1.193-2.271-1.626-4.356-1.3-4.9.785-11.319,3.986-16.245,7.881-1.567,1.053-11.366,7.6-16.367,9.779-4.977,2.17-11.129,3.479-12.811,1.912-.8-.745-.42-2.45.037-3.751,1.963-5.555,8.488-10.077,13.479-12.261a16.928,16.928,0,0,1,5.494-1.585c-1.1,1.384-4.63,4.057-8.378,6.276l1.549,2.62c3.753-2.22,10.067-6.377,10.2-9.271a2.362,2.362,0,0,0-1-2.05c-1.159-.838-3.235-.8-6.158.118a35.725,35.725,0,0,0-10.437,5.539c-1.206.611-7.625,3.755-39.546,18.511-13.2,6.1-16.274,4.5-16.988,3.526-2.261-3.085,2.91-14.955,20.837-38.326,18.783,1.8,34.36,2.113,42.913,2.113,4.378,0,6.921-.081,7.108-.089l-.116-3.042a423.658,423.658,0,0,1-47.717-1.8c5.961-7.642,13.2-16.426,21.894-26.455a446.757,446.757,0,0,0,73.07,5.837c106.434,0,192.715-35.1,192.715-78.394M57.844,154.941c.783-1.975,1.707-4.033,2.75-6.1,7.09-14.027,18.929-25.827,22.7-26.593-.755,2.379-6.28,9.188-11.634,15.787-1.528,1.886-3.154,3.889-4.847,6-3.481,4.341-6.375,7.9-8.969,10.909m15.413,7.871a31.3,31.3,0,0,1,3.459-4.38c4.007-4.007,9.136-6.856,10.859-6.856a.789.789,0,0,1,.434.1c.166,1.823-6.962,6.838-14.752,11.135m108.461,27.039c-3.128,4.611-6.5,8.506-9.925,10.674-6.132,3.881-11.183,4.443-13.286,3.321a1.246,1.246,0,0,1-.806-1.12c-.035-1.311,1.642-3.879,6.485-6.8a43.094,43.094,0,0,1,17.532-6.071M-7.235,170.722c1-5.168,13.039-13.735,21.108-15.026a5.134,5.134,0,0,1,.818-.075,4.307,4.307,0,0,1,.524.051A5.632,5.632,0,0,1,14.2,158.72l1.946,1.2c-8.139,7.776-18.488,15.415-22.306,13.116a1.97,1.97,0,0,1-1.08-2.31m-43.514-74c.051-.034.1-.071.15-.106,31.289-22.03,38.635-23.747,40.163-23.747h.071c-.136,1.045-1.676,5-13.757,18.287-2.953,3.247-5.74,6.355-8.439,9.381q-9.426-1.674-18.188-3.816m-49,36.672c12.085-9.468,23.875-18.429,34.752-26.41q10.86,2.658,22.608,4.733c-8.9,10.276-16.16,19.115-22.04,26.712-10.987-1.088-23.014-2.693-35.32-5.036M-125.341-4.211C-146.275,8.33-158.51,23.47-158.51,39.77c0,27.879,35.781,52.355,89.675,66.254-10.958,8.078-22.777,17.1-34.863,26.6-37.372-7.569-76.575-22.142-96.673-50.1-8.823-12.275-10.246-24.616-4.224-36.68,10-20.045,39.106-37.622,79.254-50.052m319.408,44.2c0,39.28-72.768,66.116-160.331,66.116a385.9,385.9,0,0,1-62.765-4.942c2.31-2.586,4.678-5.222,7.161-7.952C-5.984,75.737-6.4,72.437-8.038,70.716c-1.409-1.486-4.346-4.561-42.6,22.213q-1.967,1.376-4,2.821C-97.792,84.471-126.6,64.694-126.6,39.987c0-24.512,28.34-46.126,70.929-58.915A540.821,540.821,0,0,1,2.144-23.257C80.2-24.983,127.563-1.786,128.034-1.55l1.36-2.724C128.921-4.511,80.962-28,2.075-26.3c-12.438.27-24.664.956-36.589,2.013a333.238,333.238,0,0,1,68.249-6.846c87.564,0,160.331,31.841,160.331,71.121M150.292,69.8h7.094s-8.5-6.087-8.5-23.851c0-11.587-.124-12.215-.124-12.215h6.128V21.679h-6.128L148.885.092,132.528,11.549v10.13h-4.969l.124,12.184h4.857V46.08S131.41,69.8,150.292,69.8M126.275,41.566c-2.592-13.779-13.834-23.227-25.484-21.173a10.019,10.019,0,0,0-5.036,2.492c5.994,2.261,11.181,7.946,14.076,21.281s4.348,19.142,7.151,22.324c6.513-1.808,11.579-12.785,9.294-24.924m-25.007,3.873c-2.533-10.735-5.756-17.8-8.648-20.8-6.391,2.653-10.3,14.354-8.535,24.366,2.423,13.747,13.834,23.227,25.484,21.173a8.453,8.453,0,0,0,4.277-1.76C105.6,65.455,103.8,56.171,101.267,45.439M76.036,33.74h6.128V21.679H76.036L76.16.092,59.8,11.549v10.13H54.834l.124,12.184h4.859V46.08S58.685,69.8,77.567,69.8H84.66s-8.5-6.087-8.5-23.851c0-11.587-.124-12.215-.124-12.215m-34.18.794c0-.122,10.566-6.974,10.566-6.974-1.129-.911-5.017-7.447-18.068-7.447-9.338,0-18.218,5.5-17.79,15.953.4,9.734,7.485,12.945,16.26,14.585,4.506.82,7.9,1.033,7.778,3.511-.106,2.168-3.136,3.7-8.441,2.218-3.617-1.007-5.306-3.81-6.03-4.63L15.518,58.893c4.461,8.924,13.248,11.63,19.538,11.63s20.5-2.239,20.5-15.973c0-9.769-6.393-14.11-14.835-15.986-4.638-1.031-9.769-1.9-9.769-4.3,0-1.689,1.374-2.965,4.437-2.819a10.125,10.125,0,0,1,6.464,3.087M11.2,45.033V21.679H-5.063V44.04C-5.063,65.654,5,69.8,11.954,69.8h7.3C10.09,65.526,11.2,45.033,11.2,45.033m0-38.793A8.728,8.728,0,0,0,2.562-2.579,8.728,8.728,0,0,0-6.072,6.24a8.73,8.73,0,0,0,8.634,8.821A8.73,8.73,0,0,0,11.2,6.24M-8.168,37.206s.124-15.645,0-15.768c-9.442,0-11.411,4.167-12.616,5.306.917-.824.593-5.064.593-5.064H-36.369V69.8h16.548V40.3c0-4,2.21-5.454,5.689-5.454a9.5,9.5,0,0,1,5.963,2.358m-31.793,8.113c0-13.921-9.925-25.206-22.915-25.206a15.2,15.2,0,0,0-7.719,1.969c.128-1.214.363-4.155.363-7.108v-15L-86.394,11.545s.051,26.984.051,31.159c0,.313.047,2.635.047,3.185,0,13.921,10.433,24.634,23.42,24.634s22.915-11.285,22.915-25.2m-14.955-.643c0,6.038-3.834,10.934-8.563,10.934s-7.96-4.9-7.96-10.934,3.231-10.936,7.96-10.936,8.563,4.9,8.563,10.936" transform="translate(220.382 38.624)"></path></g></g></svg> 